<?xml version="1.0" encoding="UTF-8" standalone="no"?>
<!-- Created with Inkscape (http://www.inkscape.org/) -->

<svg
   width="190.50005mm"
   height="190.50108mm"
   viewBox="0 0 190.50004 190.50108"
   version="1.1"
   id="svg1"
   xml:space="preserve"
   inkscape:version="1.4 (86a8ad7, 2024-10-11)"
   sodipodi:docname="Flower_union.svg"
   xmlns:inkscape="http://www.inkscape.org/namespaces/inkscape"
   xmlns:sodipodi="http://sodipodi.sourceforge.net/DTD/sodipodi-0.dtd"
   xmlns="http://www.w3.org/2000/svg"
   xmlns:svg="http://www.w3.org/2000/svg"><sodipodi:namedview
     id="namedview1"
     pagecolor="#ffffff"
     bordercolor="#000000"
     borderopacity="0.25"
     inkscape:showpageshadow="2"
     inkscape:pageopacity="0.0"
     inkscape:pagecheckerboard="0"
     inkscape:deskcolor="#d1d1d1"
     inkscape:document-units="mm"
     inkscape:zoom="0.3744923"
     inkscape:cx="-242.99565"
     inkscape:cy="518.03468"
     inkscape:window-width="1553"
     inkscape:window-height="1144"
     inkscape:window-x="2389"
     inkscape:window-y="264"
     inkscape:window-maximized="0"
     inkscape:current-layer="layer1" /><defs
     id="defs1" /><g
     inkscape:label="Layer 1"
     inkscape:groupmode="layer"
     id="layer1"
     transform="translate(-72.450025,-66.704861)"><path
       id="path10"
       style="fill:#961557;fill-opacity:0.682836;stroke:#000000;stroke-width:0;stroke-dasharray:none;stroke-opacity:1;paint-order:stroke fill markers"
       d="M 167.7001,66.704861 C 150.59453,97.3047 142.42439,120.5423 157.24628,140.80174 c 2.79668,-1.42462 5.86534,-2.30129 9.02633,-2.46234 4.1043,-0.27046 8.22278,0.63049 11.88804,2.45289 14.81266,-20.25727 6.64243,-43.492234 -10.46055,-74.087429 z M 100.348,94.602837 c 5.91623,20.915253 12.26498,37.390593 22.14352,47.816623 0.21428,-0.003 0.42798,-0.0204 0.64224,-0.0204 3.30582,0.004 6.61203,0.34918 9.82238,1.14684 5.21027,1.22933 9.93471,3.64928 14.20332,6.75828 2.12304,-3.63291 5.2254,-6.70873 8.86982,-8.83609 -0.62053,-0.852 -1.22073,-1.71975 -1.77693,-2.6202 -4.25728,-6.56604 -6.18539,-14.35452 -6.1174,-22.12868 -10.4276,-9.86285 -26.89108,-16.2058 -47.78695,-22.116541 z m 134.70419,0 c -20.93186,5.920933 -37.41892,12.274443 -47.8436,22.166463 0.0473,3.49032 -0.25587,6.98308 -1.09964,10.44167 -1.23013,5.21368 -3.65285,9.94083 -6.76501,14.21141 1.52556,0.86652 2.96154,1.89321 4.26355,3.0722 1.91064,1.63384 3.46578,3.58869 4.66834,5.73961 6.46039,-4.62153 14.09928,-7.58657 22.0963,-7.80528 0.85032,-0.0325 1.70057,-0.0369 2.55003,-0.023 9.871,-10.42679 16.21644,-26.89719 22.13003,-47.803132 z M 167.7001,141.06754 a 20.887318,20.887318 0 0 0 -20.8874,20.8874 20.887318,20.887318 0 0 0 20.8874,20.8874 20.887318,20.887318 0 0 0 20.88739,-20.8874 20.887318,20.887318 0 0 0 -20.88739,-20.8874 z m -45.23016,2.70925 c -14.49438,0.21657 -30.805742,7.43725 -50.019915,18.17815 30.616805,17.11507 53.863235,25.28381 74.130615,10.42818 -1.87892,-3.76309 -2.79792,-7.99883 -2.42727,-12.22266 0.15381,-3.05733 0.99882,-5.99395 2.3625,-8.67149 -7.52937,-5.49919 -15.46854,-7.84036 -24.04593,-7.71218 z m 90.45895,0 c -8.56395,-0.12796 -16.491,2.20587 -24.0095,7.68654 3.11908,6.48791 3.16918,14.47425 -0.0446,20.96297 20.25424,14.79977 43.48658,6.62799 74.07528,-10.47136 -19.21417,-10.7409 -35.52688,-17.96157 -50.02127,-18.17815 z m -65.69928,29.82469 c -0.99826,0.72993 -2.0163,1.43396 -3.08163,2.07377 -6.4657,4.08433 -14.07313,5.89187 -21.66995,5.82866 -9.87069,10.42681 -16.21655,26.89756 -22.13003,47.80313 20.94932,-5.92586 37.44601,-12.28456 47.86924,-22.19074 -0.0324,-2.62593 0.0937,-5.25856 0.54508,-7.893 1.00915,-6.13106 3.66103,-11.73077 7.25211,-16.70748 -3.65189,-2.10837 -6.68812,-5.24295 -8.78482,-8.91434 z m 41.01786,0.0104 c -2.03769,3.77384 -5.18543,6.78493 -8.88329,8.83878 0.72338,0.99066 1.42159,2.00064 2.05622,3.05736 4.08459,6.46608 5.89208,14.07306 5.82866,21.66994 10.42684,9.87061 26.89767,16.21657 47.80313,22.13003 -5.92093,-20.93178 -12.27451,-37.41892 -22.16645,-47.8436 -3.49033,0.0473 -6.9831,-0.25587 -10.44168,-1.09964 -5.2071,-1.22857 -9.92986,-3.64648 -14.19659,-6.75287 z m -10.11243,9.47292 c -5.19136,2.51087 -11.28474,3.21218 -16.85996,1.60963 -1.41616,-0.37067 -2.77478,-0.8915 -4.06794,-1.53543 -14.77143,20.24757 -6.5984,43.47252 10.49296,74.04695 17.11245,-30.61214 25.2813,-53.85593 10.43494,-74.12115 z" /></g></svg>
